#!OML:ASF H:\LiuWeirdWalks\Patient Classification 1\Patient 1\Session 1\male.ASF
:FULLY-SPECIFIED
:DEGREES
453
root -0.369008 17.8445 -22.3466 3.99879 18.3683 18.6199
lowerback 9.92467 -2.1442 4.54495
upperback -0.973128 -1.61679 9.10928
thorax -6.50819 -0.735955 7.43221
lowerneck -12.9928 -5.838 2.97009
upperneck 21.1684 -3.31732 -26.1424
head 8.19034 -3.95948 -10.1021
rclavicle -4.29375e-014 -1.90833e-014
rhumerus -32.2827 -58.8874 31.5273
rradius 23.9149
rwrist 9.6925
rhand -20.914 9.27413
rfingers 7.12502
rthumb 5.45738 -20.6356
lclavicle -4.29375e-014 -1.90833e-014
lhumerus -6.65325 26.4073 -8.1898
lradius 26.5418
lwrist -7.98454
lhand -14.9491 2.39495
lfingers 7.12502
lthumb 11.2139 32.0753
rfemur -14.9843 1.78283 -3.79291
rtibia 41.1758
rfoot -14.304 -24.9882
rtoes -2.95434
lfemur -4.93237 0.341835 -23.8259
ltibia 48.0055
lfoot 4.07353 -8.6807
ltoes -16.3372
454
root -0.374707 17.8573 -22.2875 3.97414 18.1802 18.8103
lowerback 9.9186 -2.11585 4.71535
upperback -0.95245 -1.55706 9.15201
thorax -6.49251 -0.71153 7.37138
lowerneck -13.1043 -5.72068 3.25123
upperneck 21.2167 -3.11252 -26.5932
head 8.24721 -3.88942 -10.3342
rclavicle -8.74653e-015 2.22639e-014
rhumerus -32.1158 -58.949 31.2362
rradius 23.8948
rwrist 9.67962
rhand -20.9289 9.38061
rfingers 7.12502
rthumb 5.443 -20.5295
lclavicle -8.74653e-015 2.22639e-014
lhumerus -6.65721 26.4602 -8.26328
lradius 26.5599
lwrist -7.90755
lhand -14.6567 0.9701
lfingers 7.12502
lthumb 11.4958 30.6349
rfemur -14.6553 2.16621 -3.86
rtibia 40.97
rfoot -14.4189 -25.2351
rtoes -2.89514
lfemur -5.35243 0.586424 -23.9432
ltibia 47.8525
lfoot 3.65939 -8.20233
ltoes -15.7979
455
root -0.380143 17.8691 -22.2297 3.95552 17.9905 19.0038
lowerback 9.91579 -2.08735 4.87753
upperback -0.932041 -1.49844 9.18829
thorax -6.47849 -0.68751 7.30854
lowerneck -13.167 -5.64618 3.41916
upperneck 21.2392 -2.97093 -26.9399
head 8.28211 -3.84493 -10.5037
rclavicle 2.50469e-014 -7.95139e-014
rhumerus -31.9858 -59.0634 30.9917
rradius 23.8619
rwrist 9.75419
rhand -20.9019 9.45338
rfingers 7.12502
rthumb 5.46904 -20.456
lclavicle 2.50469e-014 -7.95139e-014
lhumerus -6.65202 26.5556 -8.34826
lradius 26.5469
lwrist -7.97907
lhand -14.4273 0.143119
lfingers 7.12502
lthumb 11.7171 29.7954
rfemur -14.3466 2.48538 -3.94236
rtibia 40.7784
rfoot -14.533 -25.4202
rtoes -2.85999
lfemur -5.75487 0.843407 -24.0701
ltibia 47.5892
lfoot 3.22905 -7.78043
ltoes -15.5152
456
root -0.385453 17.8796 -22.1727 3.93688 17.8054 19.1912
lowerback 9.91941 -2.05748 5.03689
upperback -0.911818 -1.43817 9.21855
thorax -6.46828 -0.662689 7.24081
lowerneck -13.4296 -5.46775 3.84153
upperneck 21.3662 -2.67096 -27.478
head 8.41137 -3.73838 -10.8171
rclavicle -5.56597e-015 -8.5875e-014
rhumerus -31.892 -59.1792 30.783
rradius 23.8261
rwrist 9.83628
rhand -20.8392 9.48349
rfingers 7.12502
rthumb 5.52958 -20.4244
lclavicle -5.56597e-015 -8.5875e-014
lhumerus -6.63563 26.7283 -8.4518
lradius 26.4821
lwrist -8.21641
lhand -14.4134 -0.105606
lfingers 7.12502
lthumb 11.7305 29.5459
rfemur -14.0508 2.74366 -4.02881
rtibia 40.601
rfoot -14.6487 -25.548
rtoes -2.85798
lfemur -6.13575 1.10819 -24.1949
ltibia 47.225
lfoot 2.78329 -7.40389
ltoes -15.4084
457
root -0.391 17.8887 -22.1168 3.91468 17.6228 19.3706
lowerback 9.93586 -2.0297 5.18181
upperback -0.90715 -1.37964 9.24611
thorax -6.48137 -0.638069 7.18044
lowerneck -13.5117 -5.3828 4.0333
upperneck 21.4336 -2.50956 -27.8238
head 8.47145 -3.6855 -11.0006
rclavicle 2.82274e-014 -9.54166e-015
rhumerus -31.7505 -59.2095 30.5267
rradius 23.7934
rwrist 9.8323
rhand -20.7646 9.45816
rfingers 7.12502
rthumb 5.6016 -20.4478
lclavicle 2.82274e-014 -9.54166e-015
lhumerus -6.59137 26.9357 -8.55946
lradius 26.4046
lwrist -8.47821
lhand -14.466 0.0792572
lfingers 7.12502
lthumb 11.6798 29.7337
rfemur -13.7685 2.94906 -4.11611
rtibia 40.4391
rfoot -14.7706 -25.6225
rtoes -2.88611
lfemur -6.49696 1.37934 -24.3148
ltibia 46.768
lfoot 2.3245 -7.07194
ltoes -15.3808
458
root -0.396518 17.8967 -22.0611 3.88099 17.442 19.5484
lowerback 9.95949 -2.00046 5.31279
upperback -0.898971 -1.32091 9.26832
thorax -6.49428 -0.613069 7.12226
lowerneck -13.5491 -5.31878 4.18118
upperneck 21.4586 -2.38863 -28.1185
head 8.50352 -3.64599 -11.1507
rclavicle 6.16232e-014 -4.45278e-014
rhumerus -31.6408 -59.2349 30.307
rradius 23.7562
rwrist 9.84429
rhand -20.6784 9.3919
rfingers 7.12502
rthumb 5.68485 -20.5118
lclavicle 6.16232e-014 -4.45278e-014
lhumerus -6.52984 27.2328 -8.68172
lradius 26.316
lwrist -8.71985
lhand -14.523 0.397459
lfingers 7.12502
lthumb 11.6247 30.055
rfemur -13.4846 3.10922 -4.21037
rtibia 40.291
rfoot -14.9033 -25.646
rtoes -2.93071
lfemur -6.81876 1.65408 -24.4374
ltibia 46.2228
lfoot 1.87496 -6.77296
ltoes -15.3269
459
root -0.402523 17.9035 -22.0055 3.83271 17.2653 19.7126
lowerback 9.98603 -1.96873 5.42857
upperback -0.885695 -1.26097 9.29091
thorax -6.50284 -0.587024 7.07284
lowerneck -13.4064 -5.38637 4.01465
upperneck 21.4039 -2.46026 -28.1513
head 8.44821 -3.68592 -11.1207
rclavicle -4.49253e-014 -2.54444e-014
rhumerus -31.5503 -59.211 30.1088
rradius 23.7209
rwrist 9.8212
rhand -20.5981 9.29418
rfingers 7.12502
rthumb 5.76236 -20.6075
lclavicle -4.49253e-014 -2.54444e-014
lhumerus -6.44739 27.3062 -8.79168
lradius 26.3824
lwrist -8.50844
lhand -14.5878 0.0861708
lfingers 7.12502
lthumb 11.5623 29.7472
rfemur -13.1978 3.23481 -4.29433
rtibia 40.1556
rfoot -15.0504 -25.6313
rtoes -2.98083
lfemur -7.10429 1.9276 -24.5454
ltibia 45.5967
lfoot 1.44973 -6.51256
ltoes -15.2655
460
root -0.40912 17.9094 -21.9501 3.77063 17.0892 19.8689
lowerback 10.019 -1.93145 5.52502
upperback -0.86513 -1.1962 9.31311
thorax -6.50691 -0.55803 7.03315
lowerneck -13.4269 -5.33147 4.15841
upperneck 21.3814 -2.37091 -28.4027
head 8.45532 -3.65432 -11.2477
rclavicle 1.90833e-014 3.81667e-014
rhumerus -31.5259 -59.2058 29.9876
rradius 23.6847
rwrist 9.82575
rhand -20.5165 9.19952
rfingers 7.12502
rthumb 5.84119 -20.7
lclavicle 1.90833e-014 3.81667e-014
lhumerus -6.35716 27.3659 -8.90118
lradius 26.4087
lwrist -8.53554
lhand -14.5901 -0.178074
lfingers 7.12502
lthumb 11.56 29.4831
rfemur -12.9071 3.33732 -4.3725
rtibia 40.032
rfoot -15.2134 -25.5853
rtoes -3.02506
lfemur -7.34961 2.19705 -24.6436
ltibia 44.8967
lfoot 1.10714 -6.28026
ltoes -15.0341
461
root -0.415559 17.9143 -21.8948 3.70441 16.9093 20.0317
lowerback 10.0425 -1.88725 5.59727
upperback -0.829871 -1.12848 9.33084
thorax -6.48927 -0.527074 7.00032
lowerneck -13.5139 -5.2436 4.38619
upperneck 21.3583 -2.24209 -28.6997
head 8.4811 -3.60489 -11.4137
rclavicle 3.29983e-014 6.04305e-014
rhumerus -31.5524 -59.2006 29.9204
rradius 23.6541
rwrist 9.82079
rhand -20.4368 9.10684
rfingers 7.12502
rthumb 5.91813 -20.7905
lclavicle 3.29983e-014 6.04305e-014
lhumerus -6.2609 27.4059 -9.00965
lradius 26.433
lwrist -8.65398
lhand -14.585 -0.470834
lfingers 7.12502
lthumb 11.565 29.1901
rfemur -12.6192 3.40462 -4.46674
rtibia 39.9192
rfoot -15.3828 -25.4982
rtoes -3.07217
lfemur -7.56047 2.44878 -24.7523
ltibia 44.1344
lfoot 0.814674 -6.06638
ltoes -14.7835
462
root -0.422173 17.9184 -21.8403 3.63522 16.7228 20.175
lowerback 10.0685 -1.83942 5.67502
upperback -0.789595 -1.05564 9.34783
thorax -6.46807 -0.493842 6.96256
lowerneck -13.5933 -5.17782 4.54451
upperneck 21.3289 -2.14498 -28.9231
head 8.50074 -3.56892 -11.5367
rclavicle -2.94201e-014 -6.04305e-014
rhumerus -31.6262 -59.2222 29.9038
rradius 23.6219
rwrist 9.86806
rhand -20.3404 9.03869
rfingers 7.12502
rthumb 6.0112 -20.856
lclavicle -2.94201e-014 -6.04305e-014
lhumerus -6.16168 27.4645 -9.1351
lradius 26.4402
lwrist -8.83203
lhand -14.5765 -0.637776
lfingers 7.12502
lthumb 11.5732 29.0227
rfemur -12.3479 3.45524 -4.54575
rtibia 39.8167
rfoot -15.5543 -25.3905
rtoes -3.12897
lfemur -7.7525 2.67829 -24.8425
ltibia 43.3208
lfoot 0.580969 -5.85574
ltoes -14.6157
463
root -0.428712 17.9219 -21.7867 3.56227 16.523 20.3025
lowerback 10.0987 -1.78988 5.75069
upperback -0.748234 -0.980433 9.36607
thorax -6.44801 -0.459349 6.92716
lowerneck -13.5608 -5.18704 4.49933
upperneck 21.2548 -2.15618 -28.9743
head 8.46876 -3.57707 -11.5397
rclavicle 4.33351e-014 3.18055e-014
rhumerus -31.741 -59.323 29.9411
rradius 23.5833
rwrist 10.039
rhand -20.2092 9.00715
rfingers 7.12502
rthumb 6.13789 -20.8839
lclavicle 4.33351e-014 3.18055e-014
lhumerus -6.06293 27.5034 -9.26998
lradius 26.4409
lwrist -9.1011
lhand -14.5164 -0.785435
lfingers 7.12502
lthumb 11.6312 28.8717
rfemur -12.0949 3.49293 -4.61463
rtibia 39.7229
rfoot -15.7213 -25.2643
rtoes -3.19432
lfemur -7.92569 2.88026 -24.921
ltibia 42.4671
lfoot 0.392875 -5.64432
ltoes -14.5552
464
root -0.434945 17.9251 -21.7339 3.49354 16.3216 20.4132
lowerback 10.118 -1.74093 5.83476
upperback -0.699323 -0.907258 9.3835
thorax -6.4135 -0.426209 6.88535
lowerneck -13.6486 -5.13794 4.56799
upperneck 21.2329 -2.07771 -29.1037
head 8.49337 -3.54996 -11.6085
rclavicle -2.0276e-014 -6.36111e-015
rhumerus -31.8952 -59.4762 30.0187
rradius 23.5448
rwrist 10.2514
rhand -20.0629 8.99004
rfingers 7.12502
rthumb 6.27906 -20.8969
lclavicle -2.0276e-014 -6.36111e-015
lhumerus -5.94447 27.7054 -9.41401
lradius 26.4152
lwrist -9.34382
lhand -14.5062 -0.650525
lfingers 7.12502
lthumb 11.641 29.0061
rfemur -11.8602 3.51571 -4.67072
rtibia 39.6368
rfoot -15.881 -25.1327
rtoes -3.28591
lfemur -8.08905 3.04196 -24.9867
ltibia 41.5836
lfoot 0.244937 -5.42856
ltoes -14.5657
